# xmcd CD database file
#
# Track frame offsets:
#	150
#	19397
#	42217
#	62050
#	93152
#	114062
#	145350
#	169567
#	186835
#	201927
#	229595
#	249252
#
# Disc length: 3565 seconds
#
# Revision: 0
# Processed by: cddbd v1.5.2PL0 Copyright (c) Steve Scherf et al.
# Submitted via: CDex 1.70beta2
#
DISCID=970deb0c
DTITLE=Tommy Newsom - Tommy Newsom and His TV Jazz Stars
DYEAR=1990
DGENRE=Jazz
TTITLE0=Cottontail
TTITLE1=Dream Dancing
TTITLE2=It Don't Mean A Thing If It Ain't Got That Swing
TTITLE3=Three Shades Of Blue
TTITLE4=Red Door
TTITLE5=Georgia On My Mind
TTITLE6=So Danco Samba
TTITLE7=Tickle-Toe
TTITLE8=Boy Meets Horn
TTITLE9=How Could You Do A Thing Like That To Me
TTITLE10=Con Alma
TTITLE11=Northwest Passage
EXTD=YEAR: 1990
EXTT0=
EXTT1=
EXTT2=
EXTT3=
EXTT4=
EXTT5=
EXTT6=
EXTT7=
EXTT8=
EXTT9=
EXTT10=
EXTT11=
PLAYORDER=
